<svg width="14" height="15" viewBox="0 0 14 15" fill="none" xmlns="http://www.w3.org/2000/svg">
<path d="M10.1792 13.7702C9.52008 13.7702 8.82591 13.6127 8.10841 13.3093C7.40841 13.0118 6.70258 12.6035 6.01425 12.1077C5.33175 11.606 4.67258 11.046 4.04841 10.4335C3.43008 9.80935 2.87008 9.15018 2.37425 8.47352C1.87258 7.77352 1.47008 7.07352 1.18425 6.39685C0.880915 5.67352 0.729248 4.97352 0.729248 4.31435C0.729248 3.85935 0.810915 3.42768 0.968415 3.02518C1.13175 2.61102 1.39425 2.22602 1.75008 1.89352C2.19925 1.45018 2.71258 1.22852 3.26091 1.22852C3.48841 1.22852 3.72175 1.28102 3.92008 1.37435C4.14758 1.47935 4.34008 1.63685 4.48008 1.84685L5.83341 3.75435C5.95591 3.92352 6.04925 4.08685 6.11341 4.25018C6.18925 4.42518 6.23008 4.60018 6.23008 4.76935C6.23008 4.99102 6.16591 5.20685 6.04341 5.41102C5.95591 5.56852 5.82175 5.73768 5.65258 5.90685L5.25591 6.32102C5.26175 6.33852 5.26758 6.35018 5.27341 6.36185C5.34341 6.48435 5.48341 6.69435 5.75175 7.00935C6.03758 7.33602 6.30591 7.63352 6.57425 7.90768C6.91841 8.24602 7.20425 8.51435 7.47258 8.73602C7.80508 9.01602 8.02091 9.15602 8.14925 9.22018L8.13758 9.24935L8.56341 8.82935C8.74425 8.64852 8.91925 8.51435 9.08841 8.42685C9.40925 8.22852 9.81758 8.19352 10.2259 8.36268C10.3776 8.42685 10.5409 8.51435 10.7159 8.63685L12.6526 10.0135C12.8684 10.1593 13.0259 10.346 13.1192 10.5677C13.2067 10.7893 13.2476 10.9935 13.2476 11.1977C13.2476 11.4777 13.1834 11.7577 13.0609 12.0202C12.9384 12.2827 12.7867 12.5102 12.5942 12.7202C12.2617 13.0877 11.9001 13.3502 11.4801 13.5193C11.0776 13.6827 10.6401 13.7702 10.1792 13.7702ZM3.26091 2.10352C2.94008 2.10352 2.64258 2.24352 2.35675 2.52352C2.08841 2.77435 1.90175 3.04852 1.78508 3.34602C1.66258 3.64935 1.60425 3.97018 1.60425 4.31435C1.60425 4.85685 1.73258 5.44602 1.98925 6.05268C2.25175 6.67102 2.61925 7.31268 3.08591 7.95435C3.55258 8.59602 4.08341 9.22018 4.66675 9.80935C5.25008 10.3868 5.88008 10.9235 6.52758 11.396C7.15758 11.8568 7.80508 12.2302 8.44675 12.4985C9.44425 12.9243 10.3776 13.0235 11.1476 12.7027C11.4451 12.5802 11.7076 12.3935 11.9467 12.1252C12.0809 11.9793 12.1859 11.8218 12.2734 11.6352C12.3434 11.4893 12.3784 11.3377 12.3784 11.186C12.3784 11.0927 12.3609 10.9993 12.3142 10.8943C12.2967 10.8593 12.2617 10.7952 12.1509 10.7193L10.2142 9.34268C10.0976 9.26101 9.99258 9.20268 9.89341 9.16185C9.76508 9.10935 9.71258 9.05685 9.51425 9.17935C9.39758 9.23768 9.29258 9.32518 9.17591 9.44185L8.73258 9.87935C8.50508 10.101 8.15508 10.1535 7.88675 10.0543L7.72925 9.98435C7.49008 9.85602 7.21008 9.65768 6.90091 9.39518C6.62091 9.15602 6.31758 8.87602 5.95008 8.51435C5.66425 8.22268 5.37841 7.91352 5.08091 7.56935C4.80675 7.24852 4.60841 6.97435 4.48591 6.74685L4.41591 6.57185C4.38091 6.43768 4.36925 6.36185 4.36925 6.28018C4.36925 6.07018 4.44508 5.88352 4.59091 5.73768L5.02841 5.28268C5.14508 5.16602 5.23258 5.05518 5.29091 4.95602C5.33758 4.88018 5.35508 4.81602 5.35508 4.75768C5.35508 4.71102 5.33758 4.64102 5.30841 4.57102C5.26758 4.47768 5.20341 4.37268 5.12175 4.26185L3.76841 2.34852C3.71008 2.26685 3.64008 2.20852 3.55258 2.16768C3.45925 2.12685 3.36008 2.10352 3.26091 2.10352ZM8.13758 9.25518L8.04425 9.65185L8.20175 9.24352C8.17258 9.23768 8.14925 9.24352 8.13758 9.25518Z" fill="#CCCCCC"/>
</svg>
