<svg width="14" height="15" viewBox="0 0 14 15" fill="none" xmlns="http://www.w3.org/2000/svg">
<path d="M4.08333 7.5C1.75 7.5 1.75 8.54417 1.75 9.83333V10.4167C1.75 12.0267 1.75 13.3333 4.66667 13.3333H9.33333C11.6667 13.3333 12.25 12.0267 12.25 10.4167V9.83333C12.25 8.54417 12.25 7.5 9.91667 7.5C9.33333 7.5 9.17 7.6225 8.86667 7.85L8.27167 8.48C7.58333 9.215 6.41667 9.215 5.7225 8.48L5.13333 7.85C4.83 7.6225 4.66667 7.5 4.08333 7.5Z" stroke="#CCCCCC" stroke-miterlimit="10" stroke-linecap="round" stroke-linejoin="round"/>
<path d="M11.0834 7.49935V3.99935C11.0834 2.71018 11.0834 1.66602 8.75008 1.66602H5.25008C2.91675 1.66602 2.91675 2.71018 2.91675 3.99935V7.49935" stroke="#CCCCCC" stroke-miterlimit="10" stroke-linecap="round" stroke-linejoin="round"/>
</svg>
