<svg width="18" height="19" viewBox="0 0 18 19" fill="none" xmlns="http://www.w3.org/2000/svg">
<g clip-path="url(#clip0_74_422)">
<path d="M18 9.5C18 4.52943 13.9706 0.5 9 0.5C4.02943 0.5 0 4.52943 0 9.5C0 13.9921 3.29115 17.7155 7.59375 18.3907V12.1016H5.30859V9.5H7.59375V7.51719C7.59375 5.26156 8.93742 4.01562 10.9932 4.01562C11.9776 4.01562 13.0078 4.19141 13.0078 4.19141V6.40625H11.873C10.755 6.40625 10.4062 7.10006 10.4062 7.8125V9.5H12.9023L12.5033 12.1016H10.4062V18.3907C14.7088 17.7155 18 13.9921 18 9.5Z" fill="white"/>
</g>
<defs>
<clipPath id="clip0_74_422">
<rect width="18" height="18" fill="white" transform="translate(0 0.5)"/>
</clipPath>
</defs>
</svg>
