<svg width="18" height="19" viewBox="0 0 18 19" fill="none" xmlns="http://www.w3.org/2000/svg">
<path d="M5.66262 16.813C12.4534 16.813 16.1687 11.1856 16.1687 6.30694C16.1687 6.14874 16.1652 5.98702 16.1582 5.82882C16.8809 5.30615 17.5046 4.65874 18 3.91702C17.3269 4.2165 16.6122 4.41209 15.8804 4.4971C16.651 4.03523 17.2279 3.30965 17.5043 2.45487C16.7794 2.88447 15.9867 3.18751 15.1601 3.35101C14.6031 2.75922 13.8667 2.36739 13.0648 2.23609C12.2628 2.10479 11.4399 2.24134 10.7233 2.62462C10.0067 3.00791 9.43635 3.61658 9.10039 4.35653C8.76442 5.09649 8.68157 5.92651 8.86465 6.71827C7.39687 6.64462 5.96095 6.26333 4.64999 5.59912C3.33902 4.93492 2.18227 4.00263 1.25473 2.86269C0.7833 3.67548 0.639042 4.63728 0.851273 5.55262C1.0635 6.46795 1.6163 7.26814 2.3973 7.79054C1.81097 7.77192 1.23748 7.61406 0.724219 7.32999V7.37569C0.723693 8.22866 1.01857 9.05549 1.55873 9.71563C2.09889 10.3758 2.85099 10.8285 3.68719 10.9968C3.14404 11.1454 2.57399 11.167 2.02113 11.0601C2.25709 11.7936 2.71618 12.4352 3.33433 12.8953C3.95248 13.3554 4.69884 13.611 5.46926 13.6265C4.16132 14.6539 2.54563 15.2111 0.882422 15.2085C0.587465 15.2081 0.292799 15.19 0 15.1544C1.68964 16.2384 3.65515 16.8141 5.66262 16.813Z" fill="white"/>
</svg>
