<svg width="311" height="381" viewBox="0 0 311 381" fill="none" xmlns="http://www.w3.org/2000/svg">
<path d="M181.674 378.765C181.674 379.869 180.778 380.765 179.674 380.765H130.511C129.406 380.765 128.511 379.869 128.511 378.765V198.99H181.674V378.765ZM59.1387 254.953C58.431 256.285 59.3968 257.892 60.9053 257.892H86.3135V292.312H2.00293C0.49399 292.312 -0.471421 290.704 0.237305 289.372L49.1855 197.367H89.7441L59.1387 254.953ZM310.546 289.372C311.254 290.704 310.289 292.311 308.78 292.312H225.891V257.892H247.968C249.476 257.891 250.442 256.285 249.734 254.953L219.13 197.367H261.597L310.546 289.372ZM252.099 179.515H58.6826L59.9805 177.073L85.502 127.579H224.468L252.099 179.515ZM155.593 0C156.265 0.0218191 156.928 0.374268 157.292 1.05859L213.902 107.465C214.017 107.68 214.086 107.903 214.118 108.125L214.97 109.726H95.8125L153.626 1.05859C153.99 0.374406 154.652 0.0218977 155.324 0H155.593Z" fill="#183428"/>
</svg>
