<svg width="797" height="797" viewBox="0 0 797 797" fill="none" xmlns="http://www.w3.org/2000/svg">
<path d="M444.798 718.47C444.798 723.993 440.321 728.47 434.798 728.47H361.42C355.897 728.47 351.42 723.993 351.42 718.47V409.193H444.798V718.47ZM234.638 497.957C231.099 504.617 235.926 512.649 243.468 512.65H277.301V573.106H140.014C132.47 573.105 127.642 565.069 131.185 558.409L212.087 406.342H283.328L234.638 497.957ZM666.08 558.409C669.623 565.07 664.796 573.105 657.252 573.106H522.459V512.65H550.445C557.987 512.65 562.814 504.618 559.275 497.957L510.584 406.342H585.177L666.08 558.409ZM348.475 283.763H445.264L445.263 283.762H519.962L568.494 374.985H228.77L231.083 370.634L275.877 283.763H277.217L277.218 283.762H348.476L348.475 283.763ZM398.784 67.0011C402.287 66.9715 405.803 68.7386 407.699 72.3029L496.332 238.901C496.669 239.533 496.93 240.178 497.12 240.827L503.279 252.404H293.986L389.804 72.3019C391.712 68.7157 395.261 66.9493 398.784 67.0011Z" fill="white"/>
</svg>
